<svg xmlns="http://www.w3.org/2000/svg" width="160" height="160" viewBox="0 0 80 80" role="img" aria-label="rozmowa">
  <defs>
    <linearGradient id="bg" x1="0" y1="0" x2="1" y2="1"><stop stop-color="#edf2fd"/><stop offset="1" stop-color="#e8eefb"/></linearGradient>
    <linearGradient id="line" x1="0" y1="0" x2="1" y2="1"><stop stop-color="#1553c4"/><stop offset="1" stop-color="#2364d7"/></linearGradient>
  </defs>
  <rect width="80" height="80" rx="22" fill="url(#bg)"/>
  <g fill="none" stroke="url(#line)" stroke-width="2.55" stroke-linecap="round" stroke-linejoin="round">
    <path d="M55 33.5c7.9 2.3 13 8.6 13 16.1 0 5.4-2.8 10.1-7 13l1.2 7.3-8-4a26 26 0 0 1-12.1.4"/>
    <path fill="#eaf0fc" d="M58 40.5c0 11.1-9 20.1-20.1 20.1a23 23 0 0 1-10.7-2.7L18.5 63l2.4-10.2a19.8 19.8 0 0 1-3-12.3c0-11.1 9-20.1 20.1-20.1S58 29.4 58 40.5Z"/>
    <g fill="#1c5bcd" stroke="none"><rect x="29.3" y="38.5" width="5.6" height="4.1" rx="1.4"/><rect x="40.6" y="38.5" width="5.6" height="4.1" rx="1.4"/></g>
    
  </g>
</svg>