<svg xmlns="http://www.w3.org/2000/svg" width="160" height="160" viewBox="0 0 80 80" role="img" aria-label="aparat">
  <defs>
    <linearGradient id="bg" x1="0" y1="0" x2="1" y2="1"><stop stop-color="#edf2fd"/><stop offset="1" stop-color="#e8eefb"/></linearGradient>
    <linearGradient id="line" x1="0" y1="0" x2="1" y2="1"><stop stop-color="#1553c4"/><stop offset="1" stop-color="#2364d7"/></linearGradient>
  </defs>
  <rect width="80" height="80" rx="22" fill="url(#bg)"/>
  <g fill="none" stroke="url(#line)" stroke-width="2.55" stroke-linecap="round" stroke-linejoin="round">
    <path d="M19.4 29.5h8.4l3.2-6.3a3.7 3.7 0 0 1 3.3-2h11.2a3.7 3.7 0 0 1 3.3 2l3.2 6.3h8.6a3.6 3.6 0 0 1 3.6 3.6v25.2a3.6 3.6 0 0 1-3.6 3.6H19.4a3.6 3.6 0 0 1-3.6-3.6V33.1a3.6 3.6 0 0 1 3.6-3.6Z"/>
    <circle cx="40" cy="44.1" r="10.4"/>
    <path d="M56.1 34.8h2.3"/>
    
  </g>
</svg>